<svg width="18" height="14" viewBox="0 0 18 14" fill="none" xmlns="http://www.w3.org/2000/svg">
<path fill-rule="evenodd" clip-rule="evenodd" d="M10.6889 0.748247C11.0221 0.838305 11.2192 1.18144 11.1291 1.51466L8.07598 12.8114C7.9859 13.1447 7.64282 13.3417 7.30956 13.2517C6.97633 13.1617 6.77922 12.8185 6.86927 12.4852L9.92248 1.18853C10.0125 0.855305 10.3556 0.65818 10.6889 0.748247ZM12.508 3.13874C12.7416 2.88465 13.137 2.86806 13.3911 3.1017L17.1302 6.53982C17.259 6.65824 17.3322 6.82507 17.3322 6.99991C17.3322 7.17482 17.259 7.34166 17.1302 7.45999L13.3911 10.8982C13.137 11.1317 12.7416 11.1152 12.508 10.8611C12.2743 10.607 12.2909 10.2117 12.545 9.97799L15.7838 6.99991L12.545 4.02185C12.2909 3.78821 12.2743 3.39283 12.508 3.13874ZM5.49012 3.13886C5.72375 3.39295 5.70717 3.78832 5.45307 4.02196L2.21423 6.99999L5.45307 9.97807C5.70717 10.2117 5.72375 10.6071 5.49012 10.8612C5.25648 11.1153 4.8611 11.1319 4.60701 10.8982L0.867799 7.46007C0.739083 7.34174 0.665833 7.17491 0.665833 6.99999C0.665833 6.82516 0.739091 6.65832 0.867808 6.53991L4.60701 3.1018C4.8611 2.86817 5.25648 2.88476 5.49012 3.13886Z" fill="#989898"/>
</svg>
