<svg width="18" height="18" viewBox="0 0 18 18" fill="none" xmlns="http://www.w3.org/2000/svg">
<path fill-rule="evenodd" clip-rule="evenodd" d="M8.97452 0.666626H9.02552C10.2667 0.666626 11.2328 0.666618 12.0102 0.724034C12.7991 0.782301 13.4431 0.902184 14.0299 1.16802C15.2729 1.73123 16.2688 2.72712 16.8319 3.97015C17.0978 4.55686 17.2177 5.20083 17.2759 5.9898C17.3334 6.76717 17.3334 7.73329 17.3334 8.97446V9.02546C17.3334 10.2666 17.3334 11.2327 17.2759 12.0101C17.2177 12.799 17.0978 13.443 16.8319 14.0298C16.2688 15.2728 15.2729 16.2687 14.0299 16.8319C13.4431 17.0977 12.7991 17.2176 12.0102 17.2759C11.2328 17.3333 10.2667 17.3333 9.02552 17.3333H8.97452C7.73335 17.3333 6.76723 17.3333 5.98986 17.2759C5.2009 17.2176 4.55691 17.0977 3.97021 16.8319C2.72718 16.2687 1.73129 15.2728 1.16808 14.0298C0.902245 13.443 0.782362 12.799 0.724095 12.0101C0.666679 11.2327 0.666687 10.2666 0.666687 9.02546V8.97446C0.666687 7.73329 0.666679 6.76718 0.724095 5.9898C0.782362 5.20083 0.902245 4.55685 1.16808 3.97015C1.73129 2.72712 2.72718 1.73123 3.97021 1.16802C4.55692 0.902184 5.2009 0.782301 5.98986 0.724034C6.76724 0.666618 7.73335 0.666626 8.97452 0.666626ZM6.08193 1.97063C5.36224 2.02379 4.88303 2.12675 4.4861 2.30659C3.5193 2.74465 2.74471 3.51923 2.30666 4.48603C2.12681 4.88297 2.02385 5.36218 1.9707 6.08187C1.91709 6.80783 1.91669 7.72796 1.91669 8.99996C1.91669 10.272 1.91709 11.192 1.9707 11.918C2.02385 12.6377 2.12681 13.117 2.30665 13.5139C2.74471 14.4807 3.5193 15.2553 4.4861 15.6933C4.88303 15.8732 5.36224 15.9761 6.08193 16.0293C6.8079 16.0829 7.72802 16.0833 9.00002 16.0833C10.272 16.0833 11.1921 16.0829 11.9181 16.0293C12.6378 15.9761 13.117 15.8732 13.5139 15.6933C14.4808 15.2553 15.2554 14.4807 15.6934 13.5139C15.8733 13.117 15.9762 12.6377 16.0294 11.918C16.0829 11.192 16.0834 10.272 16.0834 8.99996C16.0834 7.72796 16.0829 6.80783 16.0294 6.08187C15.9762 5.36218 15.8733 4.88297 15.6934 4.48603C15.2554 3.51923 14.4808 2.74465 13.5139 2.3066C13.117 2.12675 12.6378 2.02379 11.9181 1.97064C11.1921 1.91703 10.272 1.91663 9.00002 1.91663C7.72802 1.91663 6.8079 1.91703 6.08193 1.97063ZM12.5375 5.46251C12.2541 5.17911 11.7947 5.17911 11.5113 5.46251L11.3203 5.65353C11.203 5.77073 11.0441 5.83658 10.8783 5.83658C10.7125 5.83658 10.5536 5.77073 10.4364 5.65353L10.2454 5.46251C9.96194 5.17911 9.50252 5.17911 9.2191 5.46251C8.93569 5.74591 8.93569 6.20538 9.2191 6.48878L10.8784 8.14804L12.5375 6.48878C12.8209 6.20538 12.8209 5.74592 12.5375 5.46251ZM10.8783 4.36598C11.6499 3.81515 12.7289 3.88603 13.4214 4.57863C14.193 5.35019 14.1929 6.60112 13.4214 7.37271L11.3203 9.47388C11.203 9.59104 11.0441 9.65688 10.8784 9.65688C10.7125 9.65688 10.5536 9.59104 10.4364 9.47388L8.33519 7.37271C7.5636 6.6011 7.56369 5.35018 8.33519 4.57863C9.02777 3.88604 10.1067 3.81514 10.8783 4.36598Z" fill="#989898"/>
</svg>
