<svg width="18" height="18" viewBox="0 0 18 18" fill="none" xmlns="http://www.w3.org/2000/svg">
<path fill-rule="evenodd" clip-rule="evenodd" d="M8.97452 0.666626H9.02552C10.2667 0.666626 11.2328 0.666618 12.0102 0.724034C12.7991 0.782301 13.4431 0.902184 14.0299 1.16802C15.2729 1.73123 16.2688 2.72712 16.8319 3.97015C17.0978 4.55686 17.2177 5.20083 17.2759 5.9898C17.3334 6.76717 17.3334 7.73329 17.3334 8.97446V9.02546C17.3334 10.2666 17.3334 11.2327 17.2759 12.0101C17.2177 12.799 17.0978 13.443 16.8319 14.0298C16.2688 15.2728 15.2729 16.2687 14.0299 16.8319C13.4431 17.0977 12.7991 17.2176 12.0102 17.2759C11.2328 17.3333 10.2667 17.3333 9.02552 17.3333H8.97452C7.73335 17.3333 6.76723 17.3333 5.98986 17.2759C5.2009 17.2176 4.55691 17.0977 3.97021 16.8319C2.72718 16.2687 1.73129 15.2728 1.16808 14.0298C0.902245 13.443 0.782362 12.799 0.724095 12.0101C0.666679 11.2327 0.666687 10.2666 0.666687 9.02546V8.97446C0.666687 7.73329 0.666679 6.76718 0.724095 5.9898C0.782362 5.20083 0.902245 4.55685 1.16808 3.97015C1.73129 2.72712 2.72718 1.73123 3.97021 1.16802C4.55692 0.902184 5.2009 0.782301 5.98986 0.724034C6.76724 0.666618 7.73335 0.666626 8.97452 0.666626ZM6.08193 1.97063C5.36224 2.02379 4.88303 2.12675 4.4861 2.30659C3.5193 2.74465 2.74471 3.51923 2.30666 4.48603C2.14462 4.84365 2.045 5.26807 1.98799 5.87496H8.37502V1.91693C7.41769 1.91833 6.68322 1.92623 6.08193 1.97063ZM9.62502 1.91693V5.87496H16.012C15.955 5.26807 15.8554 4.84366 15.6934 4.48603C15.2554 3.51923 14.4808 2.74465 13.5139 2.3066C13.117 2.12675 12.6378 2.02379 11.9181 1.97064C11.3169 1.92623 10.5824 1.91833 9.62502 1.91693ZM16.0729 7.12496H9.62502V10.875H16.0729C16.0832 10.3463 16.0834 9.73129 16.0834 8.99996C16.0834 8.26863 16.0832 7.65363 16.0729 7.12496ZM16.012 12.125H9.62502V16.083C10.5824 16.0816 11.3169 16.0737 11.9181 16.0293C12.6378 15.9761 13.117 15.8732 13.5139 15.6933C14.4808 15.2553 15.2554 14.4807 15.6934 13.5139C15.8554 13.1563 15.955 12.7319 16.012 12.125ZM8.37502 16.083V12.125H1.98799C2.045 12.7319 2.14462 13.1563 2.30665 13.5139C2.74471 14.4807 3.5193 15.2553 4.4861 15.6933C4.88303 15.8732 5.36224 15.9761 6.08193 16.0293C6.68322 16.0737 7.41769 16.0816 8.37502 16.083ZM1.92712 10.875H8.37502V7.12496H1.92712C1.91682 7.65363 1.91669 8.26863 1.91669 8.99996C1.91669 9.73129 1.91682 10.3463 1.92712 10.875Z" fill="#111111"/>
</svg>
