<svg width="20" height="20" viewBox="0 0 20 20" fill="none" xmlns="http://www.w3.org/2000/svg">
<path fill-rule="evenodd" clip-rule="evenodd" d="M7.03177 5.96753C6.1455 5.96753 5.42703 6.686 5.42703 7.57226C5.42703 8.45852 6.1455 9.17702 7.03177 9.17702C7.91803 9.17702 8.63652 8.45852 8.63652 7.57226C8.63652 6.686 7.91803 5.96753 7.03177 5.96753ZM4.17703 7.57226C4.17703 5.99564 5.45514 4.71753 7.03177 4.71753C8.60836 4.71753 9.88652 5.99564 9.88652 7.57226C9.88652 9.14885 8.60836 10.427 7.03177 10.427C5.45514 10.427 4.17703 9.14885 4.17703 7.57226ZM13.1856 5.96753C12.2994 5.96753 11.5809 6.686 11.5809 7.57226C11.5809 8.45852 12.2994 9.17702 13.1856 9.17702C14.0719 9.17702 14.7904 8.45852 14.7904 7.57226C14.7904 6.686 14.0719 5.96753 13.1856 5.96753ZM10.3309 7.57226C10.3309 5.99564 11.6089 4.71753 13.1856 4.71753C14.7622 4.71753 16.0404 5.99564 16.0404 7.57226C16.0404 9.14885 14.7622 10.427 13.1856 10.427C11.6089 10.427 10.3309 9.14885 10.3309 7.57226ZM6.92329 12.128C5.08367 12.128 3.5093 13.2702 2.87346 14.8863C2.74709 15.2075 2.38425 15.3654 2.06303 15.239C1.74182 15.1127 1.58387 14.7499 1.71025 14.4286C2.52781 12.3506 4.55282 10.878 6.92329 10.878C8.06008 10.878 9.11744 11.2167 10.0003 11.7984C10.8834 11.2168 11.9414 10.878 13.0771 10.878C15.4476 10.878 17.4726 12.3506 18.2902 14.4286C18.4165 14.7499 18.2586 15.1127 17.9374 15.2391C17.6162 15.3654 17.2534 15.2075 17.1269 14.8863C16.4911 13.2702 14.9167 12.128 13.0771 12.128C12.3284 12.128 11.6247 12.3168 11.01 12.6494C11.4901 13.1618 11.8749 13.7643 12.1364 14.4286C12.2627 14.7499 12.1048 15.1127 11.7835 15.239C11.4624 15.3654 11.0995 15.2075 10.9731 14.8863C10.3373 13.2702 8.76294 12.128 6.92329 12.128Z" fill="#989898"/>
</svg>
