<svg width="20" height="20" viewBox="0 0 20 20" fill="none" xmlns="http://www.w3.org/2000/svg">
<path fill-rule="evenodd" clip-rule="evenodd" d="M9.97452 1.66663H10.0255C11.2667 1.66663 12.2328 1.66662 13.0102 1.72403C13.7991 1.7823 14.4431 1.90218 15.0299 2.16802C16.2729 2.73123 17.2688 3.72712 17.8319 4.97015C18.0978 5.55686 18.2177 6.20083 18.2759 6.9898C18.3334 7.76717 18.3334 8.73329 18.3334 9.97446V10.0255C18.3334 11.2666 18.3334 12.2327 18.2759 13.0101C18.2177 13.799 18.0978 14.443 17.8319 15.0298C17.2688 16.2728 16.2729 17.2687 15.0299 17.8319C14.4431 18.0977 13.7991 18.2176 13.0102 18.2759C12.2328 18.3333 11.2667 18.3333 10.0255 18.3333H9.97452C8.73335 18.3333 7.76723 18.3333 6.98986 18.2759C6.2009 18.2176 5.55691 18.0977 4.97021 17.8319C3.72718 17.2687 2.73129 16.2728 2.16808 15.0298C1.90225 14.443 1.78236 13.799 1.7241 13.0101C1.66668 12.2327 1.66669 11.2666 1.66669 10.0255V9.97446C1.66669 8.73329 1.66668 7.76718 1.7241 6.9898C1.78236 6.20083 1.90225 5.55685 2.16808 4.97015C2.73129 3.72712 3.72718 2.73123 4.97021 2.16802C5.55692 1.90218 6.2009 1.7823 6.98986 1.72403C7.76724 1.66662 8.73335 1.66663 9.97452 1.66663ZM7.08193 2.97063C6.36224 3.02379 5.88303 3.12675 5.4861 3.30659C4.5193 3.74465 3.74471 4.51923 3.30666 5.48603C3.14462 5.84365 3.045 6.26807 2.98799 6.87496H9.37502V2.91693C8.41769 2.91833 7.68322 2.92623 7.08193 2.97063ZM10.625 2.91693V6.87496H17.012C16.955 6.26807 16.8554 5.84366 16.6934 5.48603C16.2554 4.51923 15.4808 3.74465 14.5139 3.3066C14.117 3.12675 13.6378 3.02379 12.9181 2.97064C12.3169 2.92623 11.5824 2.91833 10.625 2.91693ZM17.0729 8.12496H10.625V11.875H17.0729C17.0832 11.3463 17.0834 10.7313 17.0834 9.99996C17.0834 9.26863 17.0832 8.65363 17.0729 8.12496ZM17.012 13.125H10.625V17.083C11.5824 17.0816 12.3169 17.0737 12.9181 17.0293C13.6378 16.9761 14.117 16.8732 14.5139 16.6933C15.4808 16.2553 16.2554 15.4807 16.6934 14.5139C16.8554 14.1563 16.955 13.7319 17.012 13.125ZM9.37502 17.083V13.125H2.98799C3.045 13.7319 3.14462 14.1563 3.30665 14.5139C3.74471 15.4807 4.5193 16.2553 5.4861 16.6933C5.88303 16.8732 6.36224 16.9761 7.08193 17.0293C7.68322 17.0737 8.41769 17.0816 9.37502 17.083ZM2.92712 11.875H9.37502V8.12496H2.92712C2.91682 8.65363 2.91669 9.26863 2.91669 9.99996C2.91669 10.7313 2.91682 11.3463 2.92712 11.875Z" fill="#989898"/>
</svg>
