<svg width="18" height="18" viewBox="0 0 18 18" fill="none" xmlns="http://www.w3.org/2000/svg">
<path fill-rule="evenodd" clip-rule="evenodd" d="M8.97452 0.666626H9.02552C10.2667 0.666626 11.2328 0.666618 12.0102 0.724034C12.7991 0.782301 13.4431 0.902184 14.0299 1.16802C15.2729 1.73123 16.2688 2.72712 16.8319 3.97015C17.0978 4.55686 17.2177 5.20083 17.2759 5.9898C17.3334 6.76717 17.3334 7.73329 17.3334 8.97446V9.02546C17.3334 10.2666 17.3334 11.2327 17.2759 12.0101C17.2177 12.799 17.0978 13.443 16.8319 14.0298C16.2688 15.2728 15.2729 16.2687 14.0299 16.8319C13.4431 17.0977 12.7991 17.2176 12.0102 17.2759C11.2328 17.3333 10.2667 17.3333 9.02552 17.3333H8.97452C7.73335 17.3333 6.76723 17.3333 5.98986 17.2759C5.2009 17.2176 4.55691 17.0977 3.97021 16.8319C2.72718 16.2687 1.73129 15.2728 1.16808 14.0298C0.902245 13.443 0.782362 12.799 0.724095 12.0101C0.666679 11.2327 0.666687 10.2666 0.666687 9.02546V8.97446C0.666687 7.73329 0.666679 6.76718 0.724095 5.9898C0.782362 5.20083 0.902245 4.55685 1.16808 3.97015C1.73129 2.72712 2.72718 1.73123 3.97021 1.16802C4.55692 0.902184 5.2009 0.782301 5.98986 0.724034C6.76724 0.666618 7.73335 0.666626 8.97452 0.666626ZM5.87502 1.98793C5.26813 2.04493 4.84372 2.14456 4.4861 2.30659C3.5193 2.74465 2.74471 3.51923 2.30666 4.48603C2.12681 4.88297 2.02385 5.36218 1.9707 6.08187C1.91709 6.80783 1.91669 7.72796 1.91669 8.99996C1.91669 10.272 1.91709 11.192 1.9707 11.918C2.02385 12.6377 2.12681 13.117 2.30665 13.5139C2.74471 14.4807 3.5193 15.2553 4.4861 15.6933C4.84371 15.8554 5.26812 15.955 5.87502 16.012V1.98793ZM7.12502 1.92706V8.47913H10.875V1.92706C10.3464 1.91676 9.73135 1.91663 9.00002 1.91663C8.26869 1.91663 7.65369 1.91676 7.12502 1.92706ZM12.125 1.98793V16.012C12.7319 15.955 13.1564 15.8554 13.5139 15.6933C14.4808 15.2553 15.2554 14.4807 15.6934 13.5139C15.8733 13.117 15.9762 12.6377 16.0294 11.918C16.0829 11.192 16.0834 10.272 16.0834 8.99996C16.0834 7.72796 16.0829 6.80783 16.0294 6.08187C15.9762 5.36218 15.8733 4.88297 15.6934 4.48603C15.2554 3.51923 14.4808 2.74465 13.5139 2.3066C13.1564 2.14456 12.7319 2.04493 12.125 1.98793ZM10.875 16.0729V9.72913H7.12502V16.0729C7.65369 16.0831 8.26869 16.0833 9.00002 16.0833C9.73135 16.0833 10.3464 16.0831 10.875 16.0729Z" fill="#989898"/>
</svg>
