<svg width="14" height="18" viewBox="0 0 14 18" fill="none" xmlns="http://www.w3.org/2000/svg">
<path fill-rule="evenodd" clip-rule="evenodd" d="M6.86193 0.666626H7.13827C8.04843 0.666618 8.76968 0.666618 9.35102 0.714118C9.94552 0.762684 10.4485 0.864026 10.9078 1.09806C11.6526 1.47756 12.2582 2.08311 12.6377 2.82792C12.8717 3.28723 12.973 3.79025 13.0216 4.38473C13.0691 4.96608 13.0691 5.68733 13.0691 6.59744V11.4025C13.0691 12.3126 13.0691 13.0338 13.0216 13.6152C12.973 14.2097 12.8717 14.7127 12.6377 15.172C12.2582 15.9168 11.6526 16.5224 10.9078 16.9019C10.4485 17.1359 9.94552 17.2372 9.35102 17.2858C8.76968 17.3333 8.04843 17.3333 7.13827 17.3333H6.86193C5.95177 17.3333 5.23055 17.3333 4.6492 17.2858C4.05471 17.2372 3.55168 17.1359 3.09237 16.9019C2.34757 16.5224 1.74202 15.9168 1.36252 15.172C1.12849 14.7127 1.02715 14.2097 0.978575 13.6152C0.931075 13.0338 0.931083 12.3125 0.931092 11.4025V6.59746C0.931083 5.68734 0.931083 4.96609 0.978575 4.38473C1.02715 3.79024 1.12849 3.28723 1.36252 2.82791C1.74202 2.08311 2.34757 1.47756 3.09237 1.09806C3.55169 0.864026 4.05471 0.762684 4.6492 0.714118C5.23055 0.666618 5.95177 0.666618 6.86193 0.666626ZM4.75099 1.95997C4.2338 2.00222 3.91359 2.08253 3.65987 2.21182C3.15026 2.47148 2.73593 2.88579 2.47627 3.3954C2.347 3.64913 2.26668 3.96933 2.22442 4.48653C2.18157 5.01102 2.18109 5.68123 2.18109 6.62496V11.375C2.18109 12.3187 2.18157 12.9889 2.22442 13.5134C2.26668 14.0305 2.347 14.3508 2.47627 14.6045C2.73593 15.1141 3.15026 15.5285 3.65987 15.7881C3.91359 15.9174 4.2338 15.9977 4.75099 16.04C5.27548 16.0828 5.94568 16.0833 6.88943 16.0833H7.11077C8.05452 16.0833 8.72468 16.0828 9.24918 16.04C9.76643 15.9977 10.0866 15.9174 10.3403 15.7881C10.8499 15.5285 11.2643 15.1141 11.5239 14.6045C11.6532 14.3508 11.7335 14.0305 11.7758 13.5134C11.8186 12.9889 11.8191 12.3187 11.8191 11.375V6.62496C11.8191 5.68123 11.8186 5.01102 11.7758 4.48653C11.7335 3.96933 11.6532 3.64913 11.5239 3.3954C11.2643 2.88579 10.8499 2.47148 10.3403 2.21182C10.0866 2.08253 9.76643 2.00222 9.24918 1.95997C8.72468 1.91711 8.05452 1.91663 7.11077 1.91663H6.88943C5.94568 1.91663 5.27548 1.91711 4.75099 1.95997ZM5.21885 3.41142C5.21885 3.06624 5.49868 2.78642 5.84385 2.78642H8.15635C8.50152 2.78642 8.78135 3.06624 8.78135 3.41142C8.78135 3.75659 8.50152 4.03642 8.15635 4.03642H5.84385C5.49868 4.03642 5.21885 3.75659 5.21885 3.41142ZM7.0001 13.8671C7.34527 13.8671 7.6251 14.147 7.6251 14.4921V14.5162C7.6251 14.8614 7.34527 15.1412 7.0001 15.1412C6.65493 15.1412 6.3751 14.8614 6.3751 14.5162V14.4921C6.3751 14.147 6.65493 13.8671 7.0001 13.8671Z" fill="#989898"/>
</svg>
